<svg xmlns="http://www.w3.org/2000/svg" width="28.445" height="20" viewBox="0 0 28.445 20"><defs><style>.a{fill:#4dbc7f;}</style></defs><path class="a" d="M100.925,1.612A1.129,1.129,0,0,0,99.779.5H77.124a1.108,1.108,0,0,0-.805,1.9l8.331,8.019L76.31,18.607a1.108,1.108,0,0,0,.814,1.892H99.781a1.131,1.131,0,0,0,1.144-1.108s0,0,0,0ZM98.637,16.684l-6.381-6.266,6.381-6.142ZM79.9,2.722H97L88.452,10.95Zm6.371,9.262L87.647,13.3a1.169,1.169,0,0,0,1.611,0l1.372-1.321,6.41,6.294H79.865Zm0,0" transform="translate(-72.48 -0.499)"/><path class="a" d="M26.253,86.345h2.332a.921.921,0,1,0,0-1.841H26.253a.921.921,0,1,0,0,1.841Zm0,0" transform="translate(-24.166 -79.737)"/><path class="a" d="M4.173,161.424a.92.92,0,0,0-.921-.921H.921a.921.921,0,0,0,0,1.841H3.253A.921.921,0,0,0,4.173,161.424Zm0,0" transform="translate(0 -151.424)"/><path class="a" d="M29.505,237.424a.921.921,0,0,0-.921-.921H26.253a.921.921,0,0,0,0,1.841h2.332A.921.921,0,0,0,29.505,237.424Zm0,0" transform="translate(-24.166 -223.112)"/></svg>